<svg xmlns="http://www.w3.org/2000/svg" viewBox="0 0 470 470" style="enable-background:new 0 0 470 470" xml:space="preserve"><path style="fill:#637381" d="M303.985 392.971c-8.83 0-16.015 7.184-16.015 16.015S295.155 425 303.985 425h148.222c-.828-9.879-3.309-15.66-6.099-22.161-3.566-8.309-7.608-17.726-7.608-35.577s4.042-27.268 7.608-35.577c3.43-7.991 6.392-14.893 6.392-29.661 0-14.767-2.962-21.668-6.392-29.659-3.566-8.308-7.608-17.725-7.608-35.575s4.042-27.266 7.608-35.574c2.79-6.5 5.271-12.279 6.099-22.157l-94.707-.001a7.5 7.5 0 0 1-7.5-7.499h-15v190.396c0 17.103-13.913 31.016-31.015 31.016z"/><path style="fill:#98d9d5" d="M37.5 53.952C35.114 54.629 32.6 55 30 55s-5.114-.371-7.5-1.048V70h15V53.952zM22.5 345.941h15V462.5h-15zM22.5 85h15v245.941h-15z"/><path style="fill:#bd1515" d="M303.985 377.971c8.83 0 16.015-7.184 16.015-16.015s-7.185-16.015-16.015-16.015H287.97v36.494a30.828 30.828 0 0 1 16.015-4.464z"/><path style="fill:#637381" d="M82.5 167.5v163.441h221.485A30.828 30.828 0 0 1 320 335.406V101.015C320 92.184 312.815 85 303.985 85H82.5v52.5A7.5 7.5 0 0 1 75 145v15a7.5 7.5 0 0 1 7.5 7.5zm197.97 120.941a7.5 7.5 0 1 1 0 15 7.5 7.5 0 0 1 0-15zm-30-20a7.5 7.5 0 1 1 0 15 7.5 7.5 0 0 1 0-15z"/><circle style="fill:#082947" cx="280.47" cy="295.941" r="7.5"/><circle style="fill:#082947" cx="250.47" cy="275.941" r="7.5"/><path style="fill:#f2ebd9" d="M17.5 27.5C17.5 34.393 23.107 40 30 40s12.5-5.607 12.5-12.5S36.893 15 30 15s-12.5 5.607-12.5 12.5z"/><path style="fill:#082947" d="M467.5 302.025c0-17.85-4.042-27.267-7.608-35.575-3.43-7.991-6.392-14.892-6.392-29.659 0-14.766 2.962-21.667 6.392-29.658 3.566-8.308 7.608-17.724 7.608-35.573a7.5 7.5 0 0 0-7.5-7.5l-102.5-.001a7.5 7.5 0 0 0 0 15l94.707.001c-.828 9.878-3.309 15.657-6.099 22.157-3.566 8.308-7.608 17.725-7.608 35.574 0 17.85 4.042 27.267 7.608 35.575 3.43 7.991 6.392 14.892 6.392 29.659 0 14.768-2.962 21.669-6.392 29.661-3.566 8.309-7.608 17.726-7.608 35.577s4.042 27.268 7.608 35.577c2.79 6.501 5.271 12.281 6.099 22.161H303.985c-8.83 0-16.015-7.184-16.015-16.015s7.185-16.015 16.015-16.015c17.102 0 31.015-13.913 31.015-31.015V101.015C335 83.913 321.087 70 303.985 70H52.5V43.282c3.146-4.471 5-9.912 5-15.782C57.5 12.336 45.163 0 30 0S2.5 12.336 2.5 27.5c0 5.87 1.854 11.311 5 15.782V462.5c0 4.142 3.357 7.5 7.5 7.5s7.5-3.358 7.5-7.5V345.941h15V462.5c0 4.142 3.357 7.5 7.5 7.5s7.5-3.358 7.5-7.5V345.941h220.471v63.044c0 17.102 13.913 31.015 31.015 31.015H460a7.5 7.5 0 0 0 7.5-7.5c0-17.851-4.042-27.268-7.608-35.577-3.43-7.991-6.392-14.893-6.392-29.661s2.962-21.669 6.392-29.661c3.566-8.308 7.608-17.725 7.608-35.576zm-163.515 43.916c8.83 0 16.015 7.184 16.015 16.015s-7.185 16.015-16.015 16.015a30.828 30.828 0 0 0-16.015 4.465v-36.494h16.015zM42.5 27.5C42.5 34.393 36.893 40 30 40s-12.5-5.607-12.5-12.5S23.107 15 30 15s12.5 5.607 12.5 12.5zm-20 26.452C24.886 54.629 27.4 55 30 55s5.114-.371 7.5-1.048V70h-15V53.952zm0 276.989V85h15v245.941h-15zM52.5 85h15v52.5c0 4.142 3.357 7.5 7.5 7.5s7.5-3.358 7.5-7.5V85h221.485c8.83 0 16.015 7.184 16.015 16.015v234.391a30.828 30.828 0 0 0-16.015-4.465H82.5V167.5c0-4.142-3.357-7.5-7.5-7.5s-7.5 3.358-7.5 7.5v163.441h-15V85z"/></svg>