<svg xmlns="http://www.w3.org/2000/svg" fill="none" viewBox="-0.5 -0.5 16 16" id="Home-Add--Streamline-Solar.svg" height="36" width="36"><desc>Home Add Streamline Icon: https://streamlinehq.com</desc><g id="Bold Duotone/Essentional UI/Home Add"><path opacity="0.4" id="Vector" fill="#637381" d="M0.15 7.649875000000001C0.15 5.967875 0.15 5.126875 0.531625 4.42975C0.91325 3.7325625000000002 1.6104375000000002 3.299875 3.00475 2.4345L4.47475 1.5221875000000002C5.948687499999999 0.607375 6.6856875 0.15 7.5 0.15C8.3143125 0.15 9.0513125 0.607375 10.52525 1.522125L11.995249999999999 2.4345C13.389625 3.299875 14.0868125 3.7325625000000002 14.468375 4.4296875C14.850000000000001 5.126875 14.850000000000001 5.967875 14.850000000000001 7.649875000000001V8.767875C14.850000000000001 11.6349375 14.850000000000001 13.0685625 13.988875 13.95925C13.127812500000001 14.850000000000001 11.7418125 14.850000000000001 8.97 14.850000000000001H6.029999999999999C3.258125 14.850000000000001 1.8721875 14.850000000000001 1.0111249999999998 13.95925C0.15 13.0685625 0.15 11.6349375 0.15 8.767875V7.649875000000001Z" stroke-width="1"></path><path id="Vector_2" fill="#637381" d="M8.05125 6.765C8.05125 6.4605625 7.8044375 6.21375 7.5 6.21375S6.94875 6.4605625 6.94875 6.765V8.418750000000001H5.295C4.990562499999999 8.418750000000001 4.74375 8.6655625 4.74375 8.97S4.990562499999999 9.52125 5.295 9.52125H6.94875V11.174999999999999C6.94875 11.4794375 7.1955625 11.72625 7.5 11.72625S8.05125 11.4794375 8.05125 11.174999999999999V9.52125H9.705C10.0094375 9.52125 10.25625 9.2744375 10.25625 8.97S10.0094375 8.418750000000001 9.705 8.418750000000001H8.05125V6.765Z" stroke-width="1"></path></g></svg>