<svg xmlns="http://www.w3.org/2000/svg" viewBox="0 0 48 48"><defs><style>.cls-1{fill:#1e0f00}</style></defs><g id="Layer_2" data-name="Layer 2"><g id="_1" data-name="1"><path class="cls-1" d="M0 46h48v2H0zM36 26h6v2h-6zM36 31h6v2h-6zM36 36h6v2h-6zM36 41h6v2h-6zM17 26h14v2H17zM17 21h14v2H17zM17 31h14v2H17zM17 36h14v2H17zM17 41h14v2H17zM36 21h11v2H36z"/><path class="cls-1" d="M44 22h2v25h-2zM6 26h6v2H6zM6 31h6v2H6zM6 36h6v2H6zM6 41h6v2H6zM1 21h11v2H1z"/><path class="cls-1" d="M2 22h2v25H2zM34 48H14a1 1 0 0 1-1-1V17a1 1 0 0 1 1-1h20a1 1 0 0 1 1 1v30a1 1 0 0 1-1 1zm-19-2h18V18H15zM22 10H10a1 1 0 0 1-1-1V1a1 1 0 0 1 1-1h12v2H11v6h11z"/><path class="cls-1" d="M12 16h24v2H12z"/><path class="cls-1" d="M23 0h2v17h-2z"/></g></g></svg>