<svg
      version="1.1"
      xmlns="http://www.w3.org/2000/svg"
      xmlnsXlink="http://www.w3.org/1999/xlink"
      viewBox="0 0 122.88 85.48"
      style={{ enableBackground: 'new 0 0 122.88 85.48' }}
    >
      <style type="text/css">
        {`
          .st0 { fill: #128807; }
          .st1 { fill: #FF9933; }
          .st2 { fill: #FFFFFF; }
          .st3 { fill: #000088; }
        `}
      </style>
      <g>
        <path className="st1" d="M6.71,0h109.46c3.7,0.02,6.71,3.05,6.71,6.75v71.98c0,3.71-3.04,6.75-6.75,6.75l-109.42,0 C3.02,85.46,0,82.43,0,78.73V6.75C0,3.05,3.01,0.02,6.71,0L6.71,0z" />
        <polygon className="st2" points="0,28.49 122.88,28.49 122.88,56.99 0,56.99 0,28.49" />
        <path className="st0" d="M0,56.99h122.88v21.74c0,3.71-3.04,6.75-6.75,6.75l-109.42,0C3.02,85.46,0,82.43,0,78.73V56.99L0,56.99z" />
        <path className="st3" d="M72.84,42.74c0-6.3-5.1-11.4-11.4-11.4s-11.4,5.1-11.4,11.4c0,6.29,5.1,11.4,11.4,11.4 S72.84,49.04,72.84,42.74L72.84,42.74z" />
        <path className="st2" d="M71.41,42.74c0-5.51-4.46-9.97-9.97-9.97s-9.97,4.46-9.97,9.97c0,5.51,4.46,9.97,9.97,9.97 S71.41,48.25,71.41,42.74L71.41,42.74z" />
        <path className="st3" d="M63.43,42.74c0-1.1-0.89-2-1.99-2s-1.99,0.89-1.99,2c0,1.1,0.89,1.99,1.99,1.99S63.43,43.84,63.43,42.74 L63.43,42.74z" />
        <path className="st3" d="M71.82,44.11c0.04-0.27-0.16-0.52-0.43-0.56c-0.27-0.04-0.52,0.16-0.56,0.43s0.16,0.52,0.43,0.56 C71.54,44.57,71.79,44.38,71.82,44.11L71.82,44.11z" />
        <polygon className="st3" points="61.44,52.71 61.78,46.73 61.44,43.88 61.1,46.73 61.44,52.71" />
        <path d="M71.11,46.75c0.11-0.25-0.02-0.55-0.27-0.65c-0.25-0.11-0.55,0.02-0.65,0.27c-0.11,0.25,0.02,0.55,0.27,0.65 C70.72,47.12,71.01,47,71.11,46.75L71.11,46.75z" />
        <polygon points="58.86,52.37 60.74,46.68 61.15,43.84 60.08,46.51 58.86,52.37" />
        <path d="M69.75,49.12c0.17-0.22,0.13-0.53-0.09-0.7c-0.22-0.17-0.53-0.13-0.7,0.09c-0.17,0.22-0.13,0.53,0.09,0.7 C69.27,49.38,69.58,49.33,69.75,49.12L69.75,49.12z" />
        <polygon points="56.45,51.38 59.74,46.37 60.87,43.73 59.15,46.02 56.45,51.38" />
        <path d="M67.81,51.05c0.22-0.17,0.26-0.48,0.09-0.7c-0.17-0.22-0.48-0.26-0.7-0.09c-0.22,0.17-0.26,0.48-0.09,0.7 C67.28,51.17,67.6,51.22,67.81,51.05L67.81,51.05z" />
        <polygon points="54.39,49.79 58.86,45.8 60.63,43.55 58.38,45.32 54.39,49.79" />
        <path d="M65.45,52.42c0.25-0.11,0.38-0.4,0.27-0.65c-0.11-0.25-0.4-0.38-0.65-0.27c-0.25,0.1-0.38,0.4-0.27,0.65 C64.9,52.4,65.19,52.52,65.45,52.42L65.45,52.42z" />
        <polygon points="52.8,47.73 58.16,45.03 60.45,43.31 57.81,44.44 52.8,47.73" />
        <path d="M62.81,53.12c0.27-0.04,0.46-0.29,0.43-0.56c-0.04-0.27-0.29-0.46-0.56-0.43c-0.27,0.04-0.46,0.29-0.43,0.56 C62.28,52.97,62.53,53.16,62.81,53.12L62.81,53.12z" />
        <polygon points="51.81,45.32 57.68,44.1 60.34,43.04 57.5,43.44 51.81,45.32" />
        <path d="M60.07,53.12c0.27,0.04,0.52-0.16,0.56-0.43c0.04-0.27-0.16-0.52-0.43-0.56c-0.27-0.04-0.52,0.16-0.56,0.43 C59.61,52.84,59.8,53.09,60.07,53.12L60.07,53.12z" />
      </g>
    </svg>